<?xml version="1.0" encoding="UTF-8" standalone="no"?>
<svg
   xmlns:dc="http://purl.org/dc/elements/1.1/"
   xmlns:cc="http://creativecommons.org/ns#"
   xmlns:rdf="http://www.w3.org/1999/02/22-rdf-syntax-ns#"
   xmlns:svg="http://www.w3.org/2000/svg"
   xmlns="http://www.w3.org/2000/svg"
   xmlns:sodipodi="http://sodipodi.sourceforge.net/DTD/sodipodi-0.dtd"
   xmlns:inkscape="http://www.inkscape.org/namespaces/inkscape"
   version="1.0"
   width="576.000000pt"
   height="80.000000pt"
   viewBox="0 0 576.000000 80.000000"
   preserveAspectRatio="xMidYMid meet"
   id="svg3019"
   inkscape:version="0.48.5 r10040"
   sodipodi:docname="logolb-8.svg">
  <defs
     id="defs3051" />
  <sodipodi:namedview
     pagecolor="#ffffff"
     bordercolor="#666666"
     borderopacity="1"
     objecttolerance="10"
     gridtolerance="10"
     guidetolerance="10"
     inkscape:pageopacity="0"
     inkscape:pageshadow="2"
     inkscape:window-width="1920"
     inkscape:window-height="1017"
     id="namedview3049"
     showgrid="false"
     inkscape:zoom="1.4142136"
     inkscape:cx="345.09893"
     inkscape:cy="59.866889"
     inkscape:window-x="-8"
     inkscape:window-y="-8"
     inkscape:window-maximized="1"
     inkscape:current-layer="g3023" />
  <metadata
     id="metadata3021">
Created by potrace 1.11, written by Peter Selinger 2001-2013
<rdf:RDF>
  <cc:Work
     rdf:about="">
    <dc:format>image/svg+xml</dc:format>
    <dc:type
       rdf:resource="http://purl.org/dc/dcmitype/StillImage" />
    <dc:title></dc:title>
  </cc:Work>
</rdf:RDF>
</metadata>
  <g
     transform="translate(0.000000,80.000000) scale(0.100000,-0.100000)"
     fill="#000000"
     stroke="none"
     id="g3023">
    <path
       d="M2970 773 c-23 -9 -60 -45 -76 -75 -9 -17 -14 -59 -14 -118 0 -50 -4 -99 -10 -109 -5 -10 -27 -26 -49 -34 -22 -9 -42 -21 -46 -27 -10 -16 11 -37 45 -43 44 -9 60 -50 60 -152 0 -92 10 -123 53 -163 32 -30 88 -40 106 -18 16 19 -1 46 -29 46 -10 0 -28 9 -41 19 -22 18 -24 29 -29 129 -4 94 -8 115 -28 141 l-23 31 23 31 c20 26 24 47 28 139 6 119 17 143 71 155 33 8 41 17 33 39 -6 16 -43 20 -74 9z"
       id="path3025" />
    <path
       d="M5374 766 c-8 -22 10 -42 46 -49 44 -9 60 -49 60 -155 0 -78 3 -94 25 -126 l24 -36 -24 -36 c-22 -32 -25 -48 -25 -126 0 -106 -16 -146 -60 -155 -36 -7 -54 -27 -46 -49 9 -24 81 -12 113 18 40 36 53 79 53 173 0 48 4 94 10 104 5 10 28 26 50 35 52 21 53 55 3 68 -51 13 -63 40 -63 141 0 96 -13 138 -53 175 -32 30 -104 42 -113 18z"
       id="path3027" />
    <path
       d="M3294 711 c-74 -34 -108 -105 -85 -181 15 -49 55 -84 168 -143 101 -54 120 -79 110 -144 -9 -51 -37 -86 -82 -101 -71 -23 -146 13 -184 90 l-21 43 0 -63 0 -63 48 -21 c26 -12 74 -24 107 -26 72 -4 131 22 179 82 27 33 31 45 31 101 0 82 -17 106 -121 167 -162 95 -162 95 -169 127 -8 39 17 94 51 110 58 26 123 6 168 -51 l26 -33 0 48 c0 45 -2 49 -35 63 -48 20 -141 18 -191 -5z"
       id="path3029"
       style="fill:#0d536c;fill-opacity:1" />
    <path
       d="M1660 415 l0 -265 30 0 30 0 0 85 0 85 54 0 54 0 79 -86 c73 -80 81 -85 113 -82 l35 3 -60 65 c-33 36 -73 79 -89 97 l-29 32 92 101 93 100 -39 0 c-35 0 -44 -7 -116 -85 l-78 -85 -55 0 -54 0 0 150 0 150 -30 0 -30 0 0 -265z"
       id="path3031" />
    <path
       d="M120 400 l0 -250 25 0 25 0 0 110 0 110 200 0 200 0 0 -110 0 -110 30 0 30 0 0 250 0 250 -30 0 -30 0 0 -110 0 -110 -200 0 -200 0 0 110 0 110 -25 0 -25 0 0 -250z"
       id="path3033" />
    <path
       d="M4171 546 c-41 -42 -50 -55 -36 -58 15 -3 17 -18 16 -138 0 -156 9 -194 58 -227 39 -27 80 -29 121 -8 37 19 41 39 5 25 -30 -11 -81 5 -95 30 -6 10 -10 86 -10 169 l0 151 49 0 c30 0 53 5 60 14 17 20 -1 28 -57 25 l-47 -3 -5 37 -5 38 -54 -55z"
       id="path3035"
       style="fill:#0d536c;fill-opacity:1" />
    <path
       d="M690 520 l0 -30 173 -2 172 -3 3 -52 3 -53 -176 0 -177 0 4 -91 c3 -85 5 -92 31 -115 27 -23 33 -24 203 -24 l174 0 0 171 0 171 -29 29 -29 29 -176 0 -176 0 0 -30z m350 -255 l0 -56 -142 3 -143 3 -3 53 -3 52 145 0 146 0 0 -55z"
       id="path3037" />
    <path
       d="M1203 526 l-28 -24 0 -152 0 -152 28 -24 c27 -23 33 -24 203 -24 l174 0 0 30 0 30 -172 2 -173 3 0 135 0 135 173 3 172 2 0 30 0 30 -174 0 c-170 0 -176 -1 -203 -24z"
       id="path3039" />
    <path
       d="M2100 520 l0 -30 173 -2 172 -3 3 -52 3 -53 -176 0 -177 0 4 -91 c3 -85 5 -92 31 -115 27 -23 33 -24 203 -24 l174 0 0 171 0 171 -29 29 -29 29 -176 0 -176 0 0 -30z m350 -255 l0 -56 -142 3 -143 3 -3 53 -3 52 145 0 146 0 0 -55z"
       id="path3041" />
    <path
       d="M3757 509 c-75 -39 -119 -149 -98 -243 16 -70 51 -119 104 -145 163 -79 329 85 273 270 -18 61 -38 89 -87 118 -46 28 -139 28 -192 0z m158 -36 c32 -35 47 -88 48 -173 1 -100 -44 -164 -116 -162 -38 1 -56 17 -83 77 -29 62 -33 169 -8 218 27 52 45 66 91 66 34 1 47 -5 68 -26z"
       id="path3043"
       style="fill:#0d536c;fill-opacity:1" />
    <path
       d="M4505 512 c-71 -46 -105 -110 -105 -199 1 -225 268 -297 365 -98 51 102 28 221 -53 283 -47 36 -160 44 -207 14z m153 -35 c54 -57 71 -200 33 -276 -25 -48 -41 -61 -85 -68 -90 -14 -154 142 -115 281 16 58 49 86 102 86 32 0 49 -6 65 -23z"
       id="path3045"
       style="fill:#0d536c;fill-opacity:1" />
    <path
       d="M4872 523 c-18 -4 -21 -8 -12 -18 7 -9 10 -76 8 -204 l-3 -191 48 0 c44 0 47 1 37 19 -5 11 -10 83 -10 161 0 138 1 141 25 164 34 31 78 39 120 22 45 -19 50 -40 50 -219 l0 -147 40 0 40 0 -3 167 c-3 121 -7 174 -18 195 -31 61 -128 77 -199 33 -51 -31 -58 -31 -53 0 5 22 2 25 -21 24 -14 -1 -36 -4 -49 -6z"
       id="path3047"
       style="fill:#0d536c;fill-opacity:1" />
  </g>
</svg>
